<?xml version="1.0" encoding="UTF-8"?>
<svg width="180" height="42" viewBox="0 0 180 42" fill="none" xmlns="http://www.w3.org/2000/svg">
  <!-- Fond du logo (optionnel) -->
  <!-- <rect width="180" height="42" rx="6" fill="#F8FAFC"/> -->
  
  <!-- Feuille principale -->
  <path d="M28 6C22 6 18 12 18 18C18 24 22 30 28 30C34 30 38 24 38 18C38 12 34 6 28 6Z" fill="#4ade80" fill-opacity="0.8"/>
  
  <!-- Feuille secondaire -->
  <path d="M12 14C8 14 6 18 6 22C6 26 8 30 12 30C16 30 18 26 18 22C18 18 16 14 12 14Z" fill="#22c55e" fill-opacity="0.9"/>
  
  <!-- Petite feuille -->
  <path d="M40 12C38 12 36 14 36 16C36 18 38 20 40 20C42 20 44 18 44 16C44 14 42 12 40 12Z" fill="#16a34a" fill-opacity="0.7"/>
  
  <!-- Tige -->
  <path d="M26 30C26 30 24 36 24 38C24 40 26 42 28 42C30 42 32 40 32 38C32 36 30 30 30 30" stroke="#16a34a" stroke-width="2" stroke-linecap="round"/>
  
  <!-- Texte "Mon Suivi Vert" -->
  <path d="M58.816 15.6C60.0053 15.6 61.0293 15.84 61.888 16.32C62.7573 16.7893 63.4187 17.456 63.872 18.32C64.3253 19.184 64.552 20.1867 64.552 21.328C64.552 22.4693 64.3253 23.472 63.872 24.336C63.4187 25.2 62.7573 25.872 61.888 26.352C61.0293 26.8213 60.0053 27.056 58.816 27.056C57.6267 27.056 56.5973 26.8213 55.728 26.352C54.8693 25.872 54.2027 25.2 53.728 24.336C53.264 23.472 53.032 22.4693 53.032 21.328C53.032 20.1867 53.264 19.184 53.728 18.32C54.2027 17.456 54.8693 16.7893 55.728 16.32C56.5973 15.84 57.6267 15.6 58.816 15.6ZM58.816 17.536C58.0693 17.536 57.424 17.6907 56.88 18C56.336 18.3093 55.92 18.7573 55.632 19.344C55.344 19.92 55.2 20.576 55.2 21.312C55.2 22.048 55.344 22.7093 55.632 23.296C55.92 23.872 56.336 24.32 56.88 24.64C57.424 24.9493 58.0693 25.104 58.816 25.104C59.5627 25.104 60.208 24.9493 60.752 24.64C61.296 24.32 61.712 23.872 62 23.296C62.288 22.7093 62.432 22.048 62.432 21.312C62.432 20.576 62.288 19.92 62 19.344C61.712 18.7573 61.296 18.3093 60.752 18C60.208 17.6907 59.5627 17.536 58.816 17.536Z" fill="#16a34a"/>
  <path d="M69.9405 21.872C69.9405 21.1253 70.0952 20.4747 70.4045 19.92C70.7245 19.3653 71.1565 18.9387 71.7005 18.64C72.2552 18.3413 72.8792 18.192 73.5725 18.192C74.1485 18.192 74.6552 18.2933 75.0925 18.496C75.5405 18.6987 75.8978 18.9867 76.1645 19.36V15.36H78.2525V27H76.1645V25.888C75.9192 26.272 75.5725 26.576 75.1245 26.8C74.6765 27.0133 74.1485 27.12 73.5405 27.12C72.8578 27.12 72.2392 26.9653 71.6845 26.656C71.1405 26.3467 70.7085 25.9093 70.3885 25.344C70.0792 24.7787 69.9245 24.1173 69.9405 23.36V21.872ZM76.1645 23.376C76.1645 22.9067 76.0738 22.5067 75.8925 22.176C75.7112 21.8453 75.4658 21.5947 75.1565 21.424C74.8472 21.2533 74.5112 21.168 74.1485 21.168C73.7858 21.168 73.4552 21.2533 73.1565 21.424C72.8578 21.584 72.6178 21.8347 72.4365 22.176C72.2552 22.5067 72.1645 22.9013 72.1645 23.36C72.1645 23.8187 72.2552 24.224 72.4365 24.576C72.6178 24.9173 72.8605 25.1787 73.1645 25.36C73.4792 25.5413 73.8152 25.632 74.1725 25.632C74.5352 25.632 74.8712 25.5467 75.1805 25.376C75.4898 25.2053 75.7352 24.9547 75.9165 24.624C76.1085 24.2827 76.1645 23.8667 76.1645 23.376Z" fill="#16a34a"/>
  <path d="M84.4388 18.192C85.2708 18.192 85.9801 18.368 86.5668 18.72C87.1641 19.072 87.6175 19.568 87.9268 20.208C88.2361 20.848 88.3908 21.6 88.3908 22.464V27H86.1828V22.784C86.1828 22.0053 85.9908 21.408 85.6068 20.992C85.2228 20.576 84.6868 20.368 83.9988 20.368C83.2108 20.368 82.5748 20.5973 82.1908 21.056C81.8068 21.5147 81.6148 22.16 81.6148 22.992V27H79.4228V18.32H81.6148V19.552C81.9134 19.1253 82.3001 18.7893 82.7748 18.544C83.2601 18.3093 83.8148 18.192 84.4388 18.192Z" fill="#16a34a"/>
  <path d="M99.3103 22.448C99.3103 22.5973 99.2943 22.8 99.2623 23.056H93.0063C93.0596 23.6213 93.2943 24.064 93.7103 24.384C94.1263 24.704 94.6383 24.864 95.2463 24.864C96.0356 24.864 96.615 24.5653 96.9823 23.968H99.1103C98.8543 24.7573 98.3796 25.4027 97.6863 25.904C96.9929 26.3947 96.1596 26.64 95.1863 26.64C94.391 26.64 93.671 26.464 93.0263 26.112C92.3923 25.7493 91.8916 25.2427 91.5243 24.592C91.1676 23.9413 90.9893 23.1893 90.9893 22.336C90.9893 21.472 91.1676 20.7147 91.5243 20.064C91.881 19.4133 92.3816 18.912 93.0263 18.56C93.671 18.208 94.391 18.032 95.1863 18.032C95.9603 18.032 96.6483 18.2027 97.2503 18.544C97.863 18.8853 98.3423 19.3707 98.6883 20C99.0343 20.6187 99.3103 21.456 99.3103 22.448ZM97.2503 21.568C97.2396 21.056 97.031 20.6453 96.6263 20.336C96.2216 20.016 95.7203 19.856 95.1223 19.856C94.5669 19.856 94.0923 20.016 93.6983 20.336C93.3043 20.6453 93.0596 21.056 92.9643 21.568H97.2503Z" fill="#16a34a"/>
  <path d="M106.505 18.032C107.125 18.032 107.674 18.16 108.153 18.416C108.633 18.6613 109.007 18.9813 109.273 19.376V18.32H111.449V27.016C111.449 27.8267 111.284 28.544 110.953 29.168C110.633 29.8027 110.153 30.3093 109.513 30.688C108.874 31.0667 108.097 31.256 107.193 31.256C105.985 31.256 104.982 30.9627 104.185 30.376C103.388 29.8 102.927 29.0213 102.801 28.04H104.945C105.103 28.4507 105.391 28.7653 105.809 28.984C106.238 29.2133 106.727 29.328 107.273 29.328C107.915 29.328 108.43 29.144 108.825 28.776C109.23 28.4187 109.433 27.8747 109.433 27.144V25.984C109.157 26.3893 108.777 26.72 108.297 26.976C107.818 27.232 107.274 27.36 106.665 27.36C105.924 27.36 105.25 27.1787 104.641 26.816C104.042 26.4427 103.565 25.9307 103.209 25.28C102.862 24.6187 102.689 23.872 102.689 23.04C102.689 22.208 102.862 21.472 103.209 20.832C103.565 20.1813 104.042 19.68 104.641 19.328C105.25 18.9653 105.924 18.7787 106.665 18.7787L106.505 18.032ZM109.273 23.072C109.273 22.5813 109.175 22.16 108.977 21.808C108.79 21.456 108.534 21.184 108.209 20.992C107.883 20.7893 107.527 20.688 107.145 20.688C106.761 20.688 106.411 20.784 106.097 20.976C105.783 21.168 105.527 21.44 105.329 21.792C105.142 22.144 105.049 22.56 105.049 23.04C105.049 23.52 105.142 23.9467 105.329 24.32C105.527 24.6827 105.783 24.9653 106.097 25.168C106.422 25.3707 106.772 25.472 107.145 25.472C107.527 25.472 107.883 25.376 108.209 25.184C108.534 24.9813 108.79 24.7093 108.977 24.368C109.175 24.016 109.273 23.584 109.273 23.072Z" fill="#16a34a"/>
  <path d="M114.747 16.64C114.341 16.64 114.005 16.5173 113.739 16.272C113.483 16.016 113.355 15.7013 113.355 15.328C113.355 14.9547 113.483 14.64 113.739 14.384C114.005 14.128 114.341 14 114.747 14C115.141 14 115.467 14.128 115.723 14.384C115.979 14.64 116.107 14.9547 116.107 15.328C116.107 15.7013 115.979 16.016 115.723 16.272C115.467 16.5173 115.141 16.64 114.747 16.64ZM115.803 18.32V27H113.611V18.32H115.803Z" fill="#16a34a"/>
  <path d="M123.972 18.192C124.804 18.192 125.513 18.368 126.1 18.72C126.697 19.072 127.15 19.568 127.46 20.208C127.769 20.848 127.924 21.6 127.924 22.464V27H125.716V22.784C125.716 22.0053 125.524 21.408 125.14 20.992C124.756 20.576 124.22 20.368 123.532 20.368C122.796 20.368 122.217 20.608 121.796 21.088C121.385 21.568 121.18 22.2027 121.18 23V27H118.988V15.36H121.18V19.616C121.468 19.1787 121.865 18.832 122.372 18.576C122.879 18.32 123.401 18.192 123.972 18.192Z" fill="#16a34a"/>
  <path d="M133.542 18.192C134.095 18.192 134.591 18.2933 135.03 18.496C135.478 18.6987 135.835 18.9813 136.102 19.344V18.32H138.294V27.096C138.294 27.9173 138.134 28.6533 137.814 29.304C137.505 29.9547 137.035 30.4667 136.406 30.848C135.777 31.2293 135.022 31.42 134.134 31.42C132.913 31.42 131.905 31.1267 131.11 30.54C130.315 29.9533 129.849 29.16 129.715 28.16H131.874C132.033 28.5387 132.297 28.8373 132.662 29.056C133.038 29.2853 133.481 29.4 133.99 29.4C134.587 29.4 135.078 29.216 135.462 28.848C135.857 28.48 136.054 27.912 136.054 27.144V25.92C135.787 26.2827 135.425 26.576 134.966 26.8C134.518 27.0133 134.022 27.12 133.478 27.12C132.795 27.12 132.177 26.9653 131.622 26.656C131.078 26.3467 130.646 25.9093 130.326 25.344C130.017 24.7787 129.862 24.1173 129.862 23.36V21.888C129.862 21.1307 130.022 20.48 130.342 19.936C130.662 19.3813 131.099 18.9547 131.654 18.656C132.209 18.3467 132.838 18.192 133.542 18.192ZM136.102 21.888C136.102 21.4187 136.011 21.0187 135.83 20.688C135.649 20.3573 135.403 20.1067 135.094 19.936C134.785 19.7653 134.449 19.68 134.086 19.68C133.723 19.68 133.393 19.7653 133.094 19.936C132.795 20.096 132.555 20.3467 132.374 20.688C132.193 21.0187 132.102 21.4133 132.102 21.872C132.102 22.3307 132.193 22.736 132.374 23.088C132.555 23.44 132.799 23.7067 133.11 23.888C133.43 24.0693 133.777 24.16 134.15 24.16C134.513 24.16 134.849 24.0747 135.158 23.904C135.467 23.7333 135.713 23.4827 135.894 23.152C136.086 22.8107 136.102 22.3787 136.102 21.888Z" fill="#16a34a"/>
  <path d="M140.67 16.64C140.264 16.64 139.928 16.5173 139.662 16.272C139.406 16.016 139.278 15.7013 139.278 15.328C139.278 14.9547 139.406 14.64 139.662 14.384C139.928 14.128 140.264 14 140.67 14C141.064 14 141.39 14.128 141.646 14.384C141.902 14.64 142.03 14.9547 142.03 15.328C142.03 15.7013 141.902 16.016 141.646 16.272C141.39 16.5173 141.064 16.64 140.67 16.64ZM141.726 18.32V27H139.534V18.32H141.726Z" fill="#16a34a"/>
  <path d="M146.698 19.968V24.624C146.698 24.9547 146.773 25.1947 146.922 25.344C147.082 25.4827 147.343 25.552 147.706 25.552H148.778V27H147.39C146.517 27 145.855 26.7973 145.406 26.392C144.957 25.9867 144.562 25.3013 144.562 24.352V19.968H143.474V18.32H144.562V16.176H146.698V18.32H148.778V19.968H146.698Z" fill="#16a34a"/>
  <path d="M152.493 21.872C152.493 21.1253 152.648 20.4747 152.957 19.92C153.277 19.3653 153.709 18.9387 154.253 18.64C154.808 18.3413 155.432 18.192 156.125 18.192C156.701 18.192 157.208 18.2933 157.645 18.496C158.093 18.6987 158.45 18.9867 158.717 19.36V15.36H160.805V27H158.717V25.888C158.472 26.272 158.125 26.576 157.677 26.8C157.229 27.0133 156.701 27.12 156.093 27.12C155.41 27.12 154.792 26.9653 154.237 26.656C153.693 26.3467 153.261 25.9093 152.941 25.344C152.632 24.7787 152.477 24.1173 152.493 23.36V21.872ZM158.717 23.376C158.717 22.9067 158.626 22.5067 158.445 22.176C158.264 21.8453 158.018 21.5947 157.709 21.424C157.4 21.2533 157.064 21.168 156.701 21.168C156.338 21.168 156.008 21.2533 155.709 21.424C155.41 21.584 155.17 21.8347 154.989 22.176C154.808 22.5067 154.717 22.9013 154.717 23.36C154.717 23.8187 154.808 24.224 154.989 24.576C155.17 24.9173 155.413 25.1787 155.717 25.36C156.032 25.5413 156.368 25.632 156.725 25.632C157.088 25.632 157.424 25.5467 157.733 25.376C158.042 25.2053 158.288 24.9547 158.469 24.624C158.661 24.2827 158.717 23.8667 158.717 23.376Z" fill="#16a34a"/>
  
  <!-- Détails décoratifs (nervures des feuilles) -->
  <path d="M28 6C28 6 27 10 30 16" stroke="#16a34a" stroke-width="1" stroke-linecap="round" fill="none"/>
  <path d="M28 6C28 6 29 10 26 16" stroke="#16a34a" stroke-width="1" stroke-linecap="round" fill="none"/>
  <path d="M12 14C12 14 12 18 14 22" stroke="#16a34a" stroke-width="1" stroke-linecap="round" fill="none"/>
  
  <!-- Points décoratifs -->
  <circle cx="34" cy="14" r="1" fill="#16a34a"/>
  <circle cx="24" cy="16" r="1" fill="#16a34a"/>
  <circle cx="16" cy="22" r="1" fill="#16a34a"/>
</svg>