<svg width="100" height="100" viewBox="0 0 100 100" fill="none" xmlns="http://www.w3.org/2000/svg">
  <!-- Feuille principale -->
  <path d="M50 15C34 15 25 30 25 50C25 70 40 85 50 85C60 85 75 70 75 50C75 30 66 15 50 15Z" fill="#4CAF50" />
  
  <!-- Nervures de la feuille -->
  <path d="M50 15C50 15 40 30 40 50C40 70 50 85 50 85" stroke="#388E3C" stroke-width="2" />
  <path d="M50 15C50 15 60 30 60 50C60 70 50 85 50 85" stroke="#388E3C" stroke-width="2" />
  <path d="M50 15C50 15 30 40 50 85" stroke="#388E3C" stroke-width="2" />
  <path d="M50 15C50 15 70 40 50 85" stroke="#388E3C" stroke-width="2" />
  
  <!-- Contour de la feuille -->
  <path d="M50 15C34 15 25 30 25 50C25 70 40 85 50 85C60 85 75 70 75 50C75 30 66 15 50 15Z" stroke="#2E7D32" stroke-width="3" />
  
  <!-- Tige -->
  <path d="M50 85C50 85 50 95 50 95" stroke="#5D4037" stroke-width="4" stroke-linecap="round" />
  
  <!-- Goutte d'eau -->
  <path d="M65 45C65 45 60 37 55 45C50 53 55 59 60 59C65 59 70 53 65 45Z" fill="#2196F3" fill-opacity="0.8" />
  
  <!-- Cercle qui entoure la feuille -->
  <circle cx="50" cy="50" r="45" stroke="#2E7D32" stroke-width="3" stroke-dasharray="5 3" />
</svg>