<?xml version="1.0" encoding="UTF-8"?>
<svg width="48" height="48" viewBox="0 0 48 48" fill="none" xmlns="http://www.w3.org/2000/svg">
  <!-- Feuille principale -->
  <path d="M28 6C22 6 18 12 18 18C18 24 22 30 28 30C34 30 38 24 38 18C38 12 34 6 28 6Z" fill="#4ade80" fill-opacity="0.8"/>
  
  <!-- Feuille secondaire -->
  <path d="M12 14C8 14 6 18 6 22C6 26 8 30 12 30C16 30 18 26 18 22C18 18 16 14 12 14Z" fill="#22c55e" fill-opacity="0.9"/>
  
  <!-- Petite feuille -->
  <path d="M40 12C38 12 36 14 36 16C36 18 38 20 40 20C42 20 44 18 44 16C44 14 42 12 40 12Z" fill="#16a34a" fill-opacity="0.7"/>
  
  <!-- Tige -->
  <path d="M26 30C26 30 24 36 24 38C24 40 26 42 28 42C30 42 32 40 32 38C32 36 30 30 30 30" stroke="#16a34a" stroke-width="2" stroke-linecap="round"/>
  
  <!-- Détails décoratifs (nervures des feuilles) -->
  <path d="M28 6C28 6 27 10 30 16" stroke="#16a34a" stroke-width="1" stroke-linecap="round" fill="none"/>
  <path d="M28 6C28 6 29 10 26 16" stroke="#16a34a" stroke-width="1" stroke-linecap="round" fill="none"/>
  <path d="M12 14C12 14 12 18 14 22" stroke="#16a34a" stroke-width="1" stroke-linecap="round" fill="none"/>
  
  <!-- Points décoratifs -->
  <circle cx="34" cy="14" r="1" fill="#16a34a"/>
  <circle cx="24" cy="16" r="1" fill="#16a34a"/>
  <circle cx="16" cy="22" r="1" fill="#16a34a"/>
</svg>