<?xml version="1.0" encoding="UTF-8"?>
<svg width="512" height="512" viewBox="0 0 512 512" fill="none" xmlns="http://www.w3.org/2000/svg">
  <rect width="512" height="512" rx="96" fill="#E8F5E9"/>
  <circle cx="256" cy="256" r="200" fill="#81C784" fill-opacity="0.5"/>
  <path d="M256 140C214.026 140 180 174.026 180 216C180 257.974 214.026 292 256 292C297.974 292 332 257.974 332 216C332 174.026 297.974 140 256 140ZM256 275.429C223.131 275.429 196.571 248.869 196.571 216C196.571 183.131 223.131 156.571 256 156.571C288.869 156.571 315.429 183.131 315.429 216C315.429 248.869 288.869 275.429 256 275.429Z" fill="#4CAF50"/>
  <path d="M197.714 108C197.714 95.8167 187.441 86 174.857 86C162.274 86 152 95.8167 152 108C152 120.183 162.274 130 174.857 130C187.441 130 197.714 120.183 197.714 108Z" fill="#4CAF50"/>
  <path d="M268 308C268 295.817 257.726 286 245.143 286C232.559 286 222.286 295.817 222.286 308C222.286 320.183 232.559 330 245.143 330C257.726 330 268 320.183 268 308Z" fill="#4CAF50"/>
  <path d="M357.143 154C357.143 141.817 346.869 132 334.286 132C321.702 132 311.429 141.817 311.429 154C311.429 166.183 321.702 176 334.286 176C346.869 176 357.143 166.183 357.143 154Z" fill="#4CAF50"/>
  <path d="M220 382C220 369.817 209.726 360 197.143 360C184.559 360 174.286 369.817 174.286 382C174.286 394.183 184.559 404 197.143 404C209.726 404 220 394.183 220 382Z" fill="#4CAF50"/>
  <path d="M152 312C152 299.817 141.726 290 129.143 290C116.559 290 106.286 299.817 106.286 312C106.286 324.183 116.559 334 129.143 334C141.726 334 152 324.183 152 312Z" fill="#4CAF50"/>
  <path d="M337.143 350C337.143 337.817 326.869 328 314.286 328C301.702 328 291.429 337.817 291.429 350C291.429 362.183 301.702 372 314.286 372C326.869 372 337.143 362.183 337.143 350Z" fill="#4CAF50"/>
  <path d="M386.286 270C386.286 257.817 376.012 248 363.429 248C350.845 248 340.571 257.817 340.571 270C340.571 282.183 350.845 292 363.429 292C376.012 292 386.286 282.183 386.286 270Z" fill="#4CAF50"/>
  <path d="M294.857 154C294.857 160.627 289.484 166 282.857 166C276.23 166 270.857 160.627 270.857 154C270.857 147.373 276.23 142 282.857 142C289.484 142 294.857 147.373 294.857 154Z" fill="#4CAF50"/>
  <path d="M236 210C236 216.627 230.627 222 224 222C217.373 222 212 216.627 212 210C212 203.373 217.373 198 224 198C230.627 198 236 203.373 236 210Z" fill="#4CAF50"/>
  <path d="M274 241C274 247.627 268.627 253 262 253C255.373 253 250 247.627 250 241C250 234.373 255.373 229 262 229C268.627 229 274 234.373 274 241Z" fill="#4CAF50"/>
  <path d="M232 271C232 277.627 226.627 283 220 283C213.373 283 208 277.627 208 271C208 264.373 213.373 259 220 259C226.627 259 232 264.373 232 271Z" fill="#4CAF50"/>
  <path d="M283 198C283 204.627 277.627 210 271 210C264.373 210 259 204.627 259 198C259 191.373 264.373 186 271 186C277.627 186 283 191.373 283 198Z" fill="#4CAF50"/>
  <path d="M246 180C246 186.627 240.627 192 234 192C227.373 192 222 186.627 222 180C222 173.373 227.373 168 234 168C240.627 168 246 173.373 246 180Z" fill="#4CAF50"/>
  <!-- Racines -->
  <path d="M237 345C237 345 228 405 256 425" stroke="#5D4037" stroke-width="6" stroke-linecap="round"/>
  <path d="M271 345C271 345 280 405 256 425" stroke="#5D4037" stroke-width="6" stroke-linecap="round"/>
  <path d="M250 355C250 355 241 405 256 425" stroke="#5D4037" stroke-width="6" stroke-linecap="round"/>
  <path d="M265 355C265 355 274 405 256 425" stroke="#5D4037" stroke-width="6" stroke-linecap="round"/>
</svg>